<?xml version="1.0" encoding="utf-8"?>
<!-- Generator: Adobe Illustrator 28.1.0, SVG Export Plug-In . SVG Version: 6.00 Build 0)  -->
<svg version="1.1" id="Layer_1" xmlns="http://www.w3.org/2000/svg" xmlns:xlink="http://www.w3.org/1999/xlink" x="0px" y="0px"
	 viewBox="0 0 783.4 783.4" style="enable-background:new 0 0 783.4 783.4;" xml:space="preserve">
<style type="text/css">
	.st0{fill:#0A1010;}
	.st1{fill:#ED1414;}
	.st2{fill:#FFFFFF;}
</style>
<rect class="st0" width="783.4" height="783.4"/>
<g id="Layer_1_00000002371913678196381150000000089289216802342838_">
	<g>
		<path class="st1" d="M365.5,662.8H184.8v-81.3c-9.1-6-17.5-12.9-25.2-20.6c-30.8-30.9-47.8-71.9-47.8-115.5V337.3h7.6
			c-6.4-17.8-9.8-36.8-9.8-55.9c0-43.8,17.1-85.1,48.1-116c31-31,72.2-48.1,116-48.1c21.1,0,41.8,4,61.1,11.7v-8h325.9v320.3h-4.9
			c2.9,8,4.9,17.9,4.9,30v191l-14.8,0c0,0-136.4,0.4-148.2,0.4c-43.8,0-85-17.1-116-48.1c-5.9-5.8-11.3-12.1-16.2-18.8V662.8z
			 M214.4,633.2h121.4v-68.3l7.2-4.3c4.3-2.6,8.1-5.1,11.7-7.8l14.3-10.7l7.9,16c6.5,13.3,15.2,25.3,25.7,35.7
			c25.4,25.4,59.2,39.4,95.1,39.4c9.4,0,97.7-0.3,133.4-0.4V471.3c0-33.5-30.1-59.9-30.1-59.9l30.1,0.2V150.6H364.4v28.1L342,165.5
			c-20.5-12.2-44.1-18.6-68.3-18.6c-35.9,0-69.7,14-95.1,39.4c-25.4,25.4-39.4,59.2-39.4,95.1c0,22.4,5.5,44.4,16,63.7l11.8,21.9
			h-25.6v78.6c0,35.7,13.9,69.3,39.2,94.6c8,8,16.9,14.9,26.6,20.6l7.3,4.3V633.2z"/>
	</g>
	<g>
		<path class="st2" d="M273.6,382.1c16.5,0,32.5-4,46.7-11.4v7.3h54.1V282l0,0c0-0.2,0-0.5,0-0.7c0-26.9-10.5-52.3-29.5-71.3
			c-19-19-44.4-29.5-71.3-29.5s-52.3,10.5-71.3,29.5s-29.5,44.4-29.5,71.3c0,26.9,10.5,52.3,29.5,71.3S246.7,382.1,273.6,382.1z
			 M273.6,234.6c25.7,0,46.6,20.9,46.6,46.6c0,25.7-20.9,46.6-46.6,46.6c-25.7,0-46.6-20.9-46.6-46.6
			C227,255.6,247.9,234.6,273.6,234.6z M321,400.5h54.1v44.9c0,26.7-10.4,51.8-29.3,70.7c-12.3,12.3-27.3,21-43.6,25.6v49.8h-54.1
			v-49.8c-16.4-4.6-31.4-13.3-43.7-25.7c-18.9-18.9-29.3-44-29.3-70.7v-44.9h54.1v44.9c0,25.3,20.6,45.9,45.9,45.9
			c25.3,0,45.9-20.6,45.9-45.9V400.5z M597.4,378H398v-53h72.6v-87.7H398v-53h72.6v-0.1h54.1v0.1h72.6v53h-72.6V325h72.6L597.4,378
			L597.4,378z M598.4,499.5c0-0.2,0-0.5,0-0.7c0-26.9-10.5-52.3-29.5-71.3c-19-19-44.4-29.5-71.3-29.5c-26.9,0-52.3,10.5-71.3,29.5
			c-19,19-29.5,44.4-29.5,71.3s10.5,52.3,29.5,71.3c19,19,44.4,29.5,71.3,29.5c16.5,0,32.5-4,46.7-11.4v7.3h54.1L598.4,499.5
			L598.4,499.5z M497.7,545.4c-25.7,0-46.6-20.9-46.6-46.6c0-25.7,20.9-46.6,46.6-46.6c25.7,0,46.6,20.9,46.6,46.6
			S523.4,545.4,497.7,545.4z"/>
	</g>
</g>
<g id="Layer_2_00000044166250485152354800000011705989990925643925_">
</g>
</svg>
